<svg version="1.1" xmlns="http://www.w3.org/2000/svg" viewBox="0 0 1036.151611328125 233.35594177246094"
     width="1036.151611328125" height="233.35594177246094">
    <!-- svg-source:excalidraw -->

    <defs>
        <style class="style-fonts">
            @font-face {
            font-family: "Virgil";
            src: url("https://excalidraw.com/Virgil.woff2");
            }
            @font-face {
            font-family: "Cascadia";
            src: url("https://excalidraw.com/Cascadia.woff2");
            }
        </style>

    </defs>
    <rect x="0" y="0" width="1036.151611328125" height="233.35594177246094" fill="#ffffff"></rect>
    <g stroke-linecap="round" transform="translate(11.8133544921875 10.446807861328125) rotate(0 144.5 36.5)">
        <path d="M4.86 4.22 C4.86 4.22, 4.86 4.22, 4.86 4.22 M4.86 4.22 C4.86 4.22, 4.86 4.22, 4.86 4.22 M3.28 12.13 C5.87 11.32, 6.51 8.42, 11.81 2.32 M3.28 12.13 C6.53 9.1, 8.68 5.52, 11.81 2.32 M1.71 20.04 C6.13 13.91, 11.87 6.82, 18.77 0.41 M1.71 20.04 C6.86 14.22, 11.62 8.4, 18.77 0.41 M2.11 25.68 C6.3 18.24, 12.37 16.6, 23.76 0.77 M2.11 25.68 C8.59 18.96, 13.66 11.38, 23.76 0.77 M1.84 32.08 C12.96 20.97, 22.05 7.13, 29.4 0.38 M1.84 32.08 C9.73 23.56, 17.16 13.02, 29.4 0.38 M2.24 37.72 C15.65 24.61, 26.14 9.8, 34.39 0.74 M2.24 37.72 C10.3 30.33, 15.85 22.08, 34.39 0.74 M2.63 43.36 C9.79 32.98, 19.4 24.2, 40.03 0.35 M2.63 43.36 C11.45 33.11, 21.4 22.57, 40.03 0.35 M2.37 49.76 C16.87 30, 31.3 14.49, 45.02 0.71 M2.37 49.76 C11.88 39.38, 20.14 28.52, 45.02 0.71 M2.77 55.41 C19.63 35.85, 34.95 20.04, 50.66 0.31 M2.77 55.41 C19.5 36.46, 37.12 16.45, 50.66 0.31 M1.19 63.31 C18.44 43.08, 34.97 23.14, 55.65 0.67 M1.19 63.31 C19.8 41.42, 38.95 21.82, 55.65 0.67 M4.21 65.94 C18.72 50.11, 33.64 32.58, 61.29 0.28 M4.21 65.94 C16.08 51.21, 28.5 37.79, 61.29 0.28 M6.57 69.32 C28.36 43.49, 52.73 18.08, 66.28 0.64 M6.57 69.32 C28.82 45.37, 50.2 20, 66.28 0.64 M9.59 71.94 C22.48 54.93, 38.02 39.26, 71.92 0.24 M9.59 71.94 C31.29 47.75, 52.66 22.4, 71.92 0.24 M13.92 73.05 C26.47 58.26, 37.47 43.01, 76.91 0.6 M13.92 73.05 C30.51 54.9, 47.32 35.87, 76.91 0.6 M19.57 72.66 C35.61 58.16, 50.12 41.58, 82.55 0.21 M19.57 72.66 C33.34 54.74, 47.74 38.07, 82.55 0.21 M24.55 73.02 C38.32 56.75, 50.69 42.58, 87.54 0.57 M24.55 73.02 C45.33 47.67, 66.88 22.6, 87.54 0.57 M30.2 72.63 C41.93 56.71, 55.63 42.02, 93.18 0.17 M30.2 72.63 C51.08 48.29, 71.03 26.66, 93.18 0.17 M35.18 72.99 C57.89 46.24, 83.74 17.92, 98.17 0.53 M35.18 72.99 C53.87 53.24, 70.91 31.74, 98.17 0.53 M40.83 72.59 C54.81 57.26, 69.79 39.66, 103.15 0.89 M40.83 72.59 C54.47 57.78, 67.33 43.01, 103.15 0.89 M45.81 72.95 C68.13 43.72, 91.61 15.83, 108.8 0.5 M45.81 72.95 C65.28 49.56, 83.9 28.3, 108.8 0.5 M51.46 72.56 C70.99 49.21, 91.87 24.13, 113.78 0.86 M51.46 72.56 C66.71 53.43, 82.44 35.83, 113.78 0.86 M56.44 72.92 C74.89 52.74, 89.85 32.74, 119.43 0.46 M56.44 72.92 C81.58 45.35, 105.8 15.69, 119.43 0.46 M62.09 72.52 C78.28 54.29, 95.87 36.18, 124.41 0.82 M62.09 72.52 C82.98 46.43, 105.85 21.39, 124.41 0.82 M67.07 72.88 C82.72 55.14, 97.75 40.98, 130.06 0.43 M67.07 72.88 C83.47 53.02, 101.93 32.69, 130.06 0.43 M72.06 73.24 C92.06 47.31, 113.62 22.25, 135.04 0.79 M72.06 73.24 C97.44 44.66, 121.71 15.26, 135.04 0.79 M77.7 72.85 C101.52 45.08, 128.39 17.29, 140.69 0.4 M77.7 72.85 C96.32 53.81, 113.29 32.6, 140.69 0.4 M82.69 73.21 C98.4 58.21, 109.96 39.82, 145.67 0.76 M82.69 73.21 C108.11 45.24, 133.05 15.94, 145.67 0.76 M88.33 72.81 C104.73 54.5, 117.09 39.7, 151.32 0.36 M88.33 72.81 C102.18 56.17, 115.61 42.11, 151.32 0.36 M93.32 73.17 C110.34 52.23, 132.04 31.25, 156.3 0.72 M93.32 73.17 C113.81 50.94, 133.64 25.87, 156.3 0.72 M98.96 72.78 C122.4 46.17, 147.8 18.23, 161.95 0.33 M98.96 72.78 C119.15 49.36, 139.12 26.85, 161.95 0.33 M103.95 73.14 C123.86 52.82, 140.44 28.87, 166.93 0.69 M103.95 73.14 C123.99 50.07, 145.57 25.97, 166.93 0.69 M109.59 72.74 C136.38 44.15, 157.74 16.69, 172.58 0.29 M109.59 72.74 C130.89 48.07, 151.66 24.09, 172.58 0.29 M114.58 73.1 C134.6 49.78, 157.03 26.42, 177.56 0.65 M114.58 73.1 C133.19 51.66, 152.59 29.54, 177.56 0.65 M120.22 72.71 C141.86 48.3, 167.73 19.32, 183.21 0.26 M120.22 72.71 C134.2 57.31, 146.05 44.06, 183.21 0.26 M125.21 73.07 C137.48 58.69, 150.84 41.99, 188.19 0.62 M125.21 73.07 C143.58 53.29, 159.99 33.11, 188.19 0.62 M130.85 72.68 C151.15 48.57, 171.93 24.79, 193.18 0.98 M130.85 72.68 C155.6 44.13, 179.6 17.07, 193.18 0.98 M135.84 73.04 C154.23 48.43, 175.96 27.61, 198.82 0.58 M135.84 73.04 C152.47 53.01, 171.39 32.85, 198.82 0.58 M141.49 72.64 C162.6 49.66, 183.69 21.78, 203.81 0.94 M141.49 72.64 C162.28 47.39, 183.38 23.87, 203.81 0.94 M146.47 73 C167.57 46.45, 190.13 21.4, 209.45 0.55 M146.47 73 C162.24 53.64, 178.75 36.9, 209.45 0.55 M151.46 73.36 C167.87 54.11, 185.65 33.46, 214.44 0.91 M151.46 73.36 C165 57.75, 178.96 43.02, 214.44 0.91 M157.1 72.97 C179.89 46.75, 204.4 19.11, 220.08 0.51 M157.1 72.97 C177.49 49.53, 198.1 25.54, 220.08 0.51 M162.09 73.33 C177.78 54.27, 192.23 34.84, 225.07 0.87 M162.09 73.33 C186.11 45.43, 211.1 15.65, 225.07 0.87 M167.73 72.93 C177.95 57.12, 194.08 44.88, 230.71 0.48 M167.73 72.93 C190.79 46.26, 214.06 20.01, 230.71 0.48 M172.72 73.29 C190.08 51.27, 209.91 33.08, 235.7 0.84 M172.72 73.29 C195.4 47.46, 217.43 22.11, 235.7 0.84 M178.36 72.9 C200.63 43.94, 225.4 19.54, 241.34 0.45 M178.36 72.9 C191.44 57.91, 203.26 43.18, 241.34 0.45 M183.35 73.26 C202.49 50.32, 225.39 23.72, 246.33 0.81 M183.35 73.26 C205.62 47.14, 227.99 22.48, 246.33 0.81 M188.99 72.86 C213.89 42.85, 237.2 17.68, 251.97 0.41 M188.99 72.86 C203.96 56.86, 218.55 39.92, 251.97 0.41 M193.98 73.22 C214.11 49.42, 235.18 27.15, 256.96 0.77 M193.98 73.22 C208.36 57.5, 223.69 40.73, 256.96 0.77 M199.62 72.83 C218.85 51.82, 233.68 32.88, 262.6 0.38 M199.62 72.83 C223.88 45.96, 247.87 17.76, 262.6 0.38 M204.61 73.19 C224.5 50.1, 241.31 28.92, 267.59 0.74 M204.61 73.19 C225.71 49.35, 246.99 24.3, 267.59 0.74 M210.25 72.79 C236.29 44.64, 260.35 13.59, 273.23 0.34 M210.25 72.79 C231.77 48.33, 254.82 22.1, 273.23 0.34 M215.24 73.15 C231.37 53.4, 248.08 34.52, 276.91 2.21 M215.24 73.15 C240 44.36, 263.52 16.71, 276.91 2.21 M220.88 72.76 C238.77 53.02, 256.05 32.89, 281.9 2.57 M220.88 72.76 C232.96 57.08, 245.79 43.05, 281.9 2.57 M225.87 73.12 C246.01 49.67, 270.12 24.68, 284.26 5.95 M225.87 73.12 C243.39 53.34, 261.28 34.52, 284.26 5.95 M231.51 72.72 C241.48 56.21, 257.55 44.91, 286.62 9.33 M231.51 72.72 C250.97 48.49, 272.62 25.43, 286.62 9.33 M236.5 73.08 C253.4 54.48, 268.85 36.37, 289.64 11.95 M236.5 73.08 C251.71 56.47, 265.98 38.28, 289.64 11.95 M241.49 73.44 C250.74 61.65, 261.27 49.84, 289.38 18.35 M241.49 73.44 C260.61 54.04, 276.6 32.56, 289.38 18.35 M247.13 73.05 C258.84 58.92, 269.33 45.93, 289.12 24.75 M247.13 73.05 C260.91 56.11, 275.91 40.94, 289.12 24.75 M252.12 73.41 C264.27 58.91, 278.01 42.54, 288.86 31.15 M252.12 73.41 C265.99 57.69, 278.82 42.9, 288.86 31.15 M257.76 73.02 C265.76 62.75, 273.7 53.47, 289.25 36.79 M257.76 73.02 C264.46 63.85, 271.23 57.15, 289.25 36.79 M262.75 73.38 C270.02 66.9, 274.22 57.18, 288.99 43.19 M262.75 73.38 C269.11 66.01, 274.38 60.54, 288.99 43.19 M268.39 72.98 C273.18 65.82, 277.02 62.23, 288.73 49.59 M268.39 72.98 C272.58 66.64, 278.75 62.01, 288.73 49.59 M272.72 74.1 C275.84 70.06, 279.3 65.17, 289.12 55.23 M272.72 74.1 C279.09 68.03, 285.65 60.09, 289.12 55.23 M279.68 72.19 C283.95 66.61, 286.32 64.57, 290.17 60.12 M279.68 72.19 C282.97 69.19, 285.94 65.78, 290.17 60.12"
              stroke="#b2f2bb" stroke-width="0.5" fill="none"></path>
        <path d="M18.25 0 M18.25 0 C112.9 3.01, 204.21 2.99, 270.75 0 M18.25 0 C71.02 -1.12, 124.85 -2.05, 270.75 0 M270.75 0 C283.85 -0.3, 289.25 6.59, 289 18.25 M270.75 0 C281.6 -1.39, 289.2 6.29, 289 18.25 M289 18.25 C289.87 27.36, 287.53 37.6, 289 54.75 M289 18.25 C289.41 29.14, 289.55 38.64, 289 54.75 M289 54.75 C289.79 68.47, 284.71 74.03, 270.75 73 M289 54.75 C288.76 65.9, 282.58 73.67, 270.75 73 M270.75 73 C211.32 73.38, 154.31 71.84, 18.25 73 M270.75 73 C196.79 72.26, 121.47 71.36, 18.25 73 M18.25 73 C6.92 72.15, -0.61 66.11, 0 54.75 M18.25 73 C3.96 73.42, -0.25 65.01, 0 54.75 M0 54.75 C1.55 43.76, -1.83 32.94, 0 18.25 M0 54.75 C-0.63 41.12, -0.02 26.49, 0 18.25 M0 18.25 C-0.99 6.38, 7.24 0.28, 18.25 0 M0 18.25 C-1.17 4.41, 7.33 1.62, 18.25 0"
              stroke="#1e1e1e" stroke-width="1" fill="none"></path>
    </g>
    <g transform="translate(110.53340148925781 34.446807861328125) rotate(0 45.77995300292969 12.5)">
        <text x="45.77995300292969" y="0" font-family="Virgil, Segoe UI Emoji" font-size="20px" fill="#1e1e1e"
              text-anchor="middle" style="white-space: pre;" direction="ltr" dominant-baseline="text-before-edge">
            Collection
        </text>
    </g>
    <g stroke-linecap="round" transform="translate(369.2110595703125 10.037811279296875) rotate(0 144.5 36.5)">
        <path d="M4.86 4.22 C4.86 4.22, 4.86 4.22, 4.86 4.22 M4.86 4.22 C4.86 4.22, 4.86 4.22, 4.86 4.22 M3.28 12.13 C6.36 9.16, 10.14 5.69, 11.81 2.32 M3.28 12.13 C5.28 9.78, 8.92 6.07, 11.81 2.32 M1.71 20.04 C10.23 10.46, 16.76 3.49, 18.77 0.41 M1.71 20.04 C6.38 14.99, 10.31 8.81, 18.77 0.41 M2.11 25.68 C9.51 18.23, 16.2 10.21, 23.76 0.77 M2.11 25.68 C5.8 20.12, 12.28 15.45, 23.76 0.77 M1.84 32.08 C14.18 21.39, 24.4 7.02, 29.4 0.38 M1.84 32.08 C8.25 23.85, 16.03 15.29, 29.4 0.38 M2.24 37.72 C12.12 24.98, 20.9 15.51, 34.39 0.74 M2.24 37.72 C15.77 22.56, 27.89 7.81, 34.39 0.74 M2.63 43.36 C8.67 34.3, 19.84 26.58, 40.03 0.35 M2.63 43.36 C17.15 27.51, 31.27 10.31, 40.03 0.35 M2.37 49.76 C9.81 38.78, 20.2 30.79, 45.02 0.71 M2.37 49.76 C16.56 35.37, 30.29 18.96, 45.02 0.71 M2.77 55.41 C13.4 39.19, 28.67 27.03, 50.66 0.31 M2.77 55.41 C20.62 34.22, 39.49 14.06, 50.66 0.31 M1.19 63.31 C20.86 41.3, 36.48 22.37, 55.65 0.67 M1.19 63.31 C22.23 37.76, 44.6 13.31, 55.65 0.67 M4.21 65.94 C22.11 44.99, 40.9 25.04, 61.29 0.28 M4.21 65.94 C19.87 45.88, 37.17 27.92, 61.29 0.28 M6.57 69.32 C29.43 43.89, 51.64 17.13, 66.28 0.64 M6.57 69.32 C21 53.34, 33.46 38.07, 66.28 0.64 M9.59 71.94 C28.98 49.93, 47.06 26.47, 71.92 0.24 M9.59 71.94 C29.28 48.17, 50.79 26.33, 71.92 0.24 M13.92 73.05 C36.85 46.32, 57.56 19.04, 76.91 0.6 M13.92 73.05 C36.99 48.26, 57.7 22.28, 76.91 0.6 M19.57 72.66 C38.21 51.7, 52.66 34.34, 82.55 0.21 M19.57 72.66 C34.52 54.52, 51.86 35.36, 82.55 0.21 M24.55 73.02 C43.24 53.61, 61.1 29.71, 87.54 0.57 M24.55 73.02 C42.01 53.27, 58.73 34.16, 87.54 0.57 M30.2 72.63 C53.88 44.96, 82.6 15.41, 93.18 0.17 M30.2 72.63 C44.21 57.78, 57.1 42.89, 93.18 0.17 M35.18 72.99 C50.57 54.25, 70.04 33.51, 98.17 0.53 M35.18 72.99 C48.96 57.92, 62.28 42.42, 98.17 0.53 M40.83 72.59 C56.1 55.56, 71.25 36.57, 103.15 0.89 M40.83 72.59 C57.41 53.24, 75.84 33.62, 103.15 0.89 M45.81 72.95 C68.25 48.6, 90.84 20.09, 108.8 0.5 M45.81 72.95 C60.68 55.85, 75.9 38.36, 108.8 0.5 M51.46 72.56 C68.79 51.18, 88.44 29.95, 113.78 0.86 M51.46 72.56 C68.64 51.81, 85.89 33.2, 113.78 0.86 M56.44 72.92 C81 45.34, 105.15 14.03, 119.43 0.46 M56.44 72.92 C74.2 54.19, 92.6 33.97, 119.43 0.46 M62.09 72.52 C86.95 45.23, 113.33 17.42, 124.41 0.82 M62.09 72.52 C76.52 56.98, 90.45 39.07, 124.41 0.82 M67.07 72.88 C87.11 49.97, 105.26 30.28, 130.06 0.43 M67.07 72.88 C82.75 52.6, 100.81 34.9, 130.06 0.43 M72.06 73.24 C93.02 49.67, 109.47 30.9, 135.04 0.79 M72.06 73.24 C89.15 53.26, 106.29 32.12, 135.04 0.79 M77.7 72.85 C102.01 43.78, 126.21 14.71, 140.69 0.4 M77.7 72.85 C97.03 50.48, 114.31 31.26, 140.69 0.4 M82.69 73.21 C103.04 50.78, 127.3 22.34, 145.67 0.76 M82.69 73.21 C103.04 51.31, 122.88 27.47, 145.67 0.76 M88.33 72.81 C106.09 53.37, 126.69 30.01, 151.32 0.36 M88.33 72.81 C111.59 45.52, 135.93 20.58, 151.32 0.36 M93.32 73.17 C117.18 44.71, 141.55 17.6, 156.3 0.72 M93.32 73.17 C109.37 57.55, 124.03 40.67, 156.3 0.72 M98.96 72.78 C113.12 57.39, 125.02 43.55, 161.95 0.33 M98.96 72.78 C117.81 49.87, 138.01 28.53, 161.95 0.33 M103.95 73.14 C115.92 56.94, 131.41 44.28, 166.93 0.69 M103.95 73.14 C118.67 57.61, 133.18 40.85, 166.93 0.69 M109.59 72.74 C123.65 56.31, 142.74 36.58, 172.58 0.29 M109.59 72.74 C125.92 55.47, 142.17 36.76, 172.58 0.29 M114.58 73.1 C136.55 45.06, 163.76 16.19, 177.56 0.65 M114.58 73.1 C132.28 52.11, 151.23 31.8, 177.56 0.65 M120.22 72.71 C138.63 49.88, 157.66 28.21, 183.21 0.26 M120.22 72.71 C139.79 50.77, 158.89 28.6, 183.21 0.26 M125.21 73.07 C139.61 59.63, 149.58 43.11, 188.19 0.62 M125.21 73.07 C145.4 47.94, 168.2 22.72, 188.19 0.62 M130.85 72.68 C154.16 45.47, 175.57 19.02, 193.18 0.98 M130.85 72.68 C151.55 50.46, 171.39 25.51, 193.18 0.98 M135.84 73.04 C153.35 49.08, 176.19 27.38, 198.82 0.58 M135.84 73.04 C153.57 51.72, 171.67 31.75, 198.82 0.58 M141.49 72.64 C152.71 56.75, 165.29 41.51, 203.81 0.94 M141.49 72.64 C161.68 49.26, 183.67 24.96, 203.81 0.94 M146.47 73 C165.84 53.61, 180.23 31.6, 209.45 0.55 M146.47 73 C169.37 48.13, 190.7 23.24, 209.45 0.55 M151.46 73.36 C171.21 47.28, 192.07 25.22, 214.44 0.91 M151.46 73.36 C170.65 51.35, 190.6 27.49, 214.44 0.91 M157.1 72.97 C170.47 57.25, 185.91 38.8, 220.08 0.51 M157.1 72.97 C180.16 46.53, 201.19 22.41, 220.08 0.51 M162.09 73.33 C187.38 45.97, 212.14 18.91, 225.07 0.87 M162.09 73.33 C184.71 44.99, 208.19 18.93, 225.07 0.87 M167.73 72.93 C180.92 54.07, 198.14 38.14, 230.71 0.48 M167.73 72.93 C181.54 55.37, 197.13 38.21, 230.71 0.48 M172.72 73.29 C196.9 46.2, 217.65 22.54, 235.7 0.84 M172.72 73.29 C186.69 57.38, 199.73 41.45, 235.7 0.84 M178.36 72.9 C197.29 50.7, 216.76 27.43, 241.34 0.45 M178.36 72.9 C200.3 49.32, 220.13 24.02, 241.34 0.45 M183.35 73.26 C208.44 45.33, 230.69 17.81, 246.33 0.81 M183.35 73.26 C199.88 53.53, 216.41 34.48, 246.33 0.81 M188.99 72.86 C202.63 59.79, 212.39 45.05, 251.97 0.41 M188.99 72.86 C208.72 52.04, 226.74 28.86, 251.97 0.41 M193.98 73.22 C216.92 49.48, 235.4 25.74, 256.96 0.77 M193.98 73.22 C215.76 46.42, 237.05 22.07, 256.96 0.77 M199.62 72.83 C211.49 57.62, 225.42 41.59, 262.6 0.38 M199.62 72.83 C222.88 46.23, 246.34 18.46, 262.6 0.38 M204.61 73.19 C219.9 57.37, 235.69 37.53, 267.59 0.74 M204.61 73.19 C229.18 45.33, 253.68 15.24, 267.59 0.74 M210.25 72.79 C224.79 58.21, 237.83 42.48, 273.23 0.34 M210.25 72.79 C230.73 49.82, 252.24 25.97, 273.23 0.34 M215.24 73.15 C232.95 54.41, 246.12 37.07, 276.91 2.21 M215.24 73.15 C236.48 48.73, 256.65 25.88, 276.91 2.21 M220.88 72.76 C243.82 49.48, 264.99 22.92, 281.9 2.57 M220.88 72.76 C239.02 51.44, 258.4 30.07, 281.9 2.57 M225.87 73.12 C245.03 51.87, 262.48 32.72, 284.26 5.95 M225.87 73.12 C238.16 59.06, 251 43.67, 284.26 5.95 M231.51 72.72 C253.79 46.38, 273.17 22.46, 286.62 9.33 M231.51 72.72 C252.35 47.13, 275.12 22.88, 286.62 9.33 M236.5 73.08 C249.23 58.8, 262.41 45.23, 289.64 11.95 M236.5 73.08 C251.94 55.86, 265.56 39.62, 289.64 11.95 M241.49 73.44 C261.05 53.74, 277.71 31.04, 289.38 18.35 M241.49 73.44 C253.39 58.37, 265.8 44.43, 289.38 18.35 M247.13 73.05 C259.4 60.82, 267.06 50.39, 289.12 24.75 M247.13 73.05 C258.68 58.41, 270.83 44, 289.12 24.75 M252.12 73.41 C262.95 58.75, 275.63 43.07, 288.86 31.15 M252.12 73.41 C264.18 61.07, 274.31 48.15, 288.86 31.15 M257.76 73.02 C264.88 62.21, 276.28 53.3, 289.25 36.79 M257.76 73.02 C271.3 59.42, 283.03 43.64, 289.25 36.79 M262.75 73.38 C268.31 67.62, 276.1 59.22, 288.99 43.19 M262.75 73.38 C270.9 64.39, 277.6 56.5, 288.99 43.19 M268.39 72.98 C270.88 69.43, 276.95 62.25, 288.73 49.59 M268.39 72.98 C274.64 65.9, 279.36 59.13, 288.73 49.59 M272.72 74.1 C274.75 71.85, 279.05 67.12, 289.12 55.23 M272.72 74.1 C278.47 66.86, 283.4 61.12, 289.12 55.23 M279.68 72.19 C282.16 67.39, 284.72 65.19, 290.17 60.12 M279.68 72.19 C281.22 69.37, 284.18 66.96, 290.17 60.12"
              stroke="#ced4da" stroke-width="0.5" fill="none"></path>
        <path d="M18.25 0 M18.25 0 C84.31 1.53, 153.38 0.66, 270.75 0 M18.25 0 C99.25 -1.62, 178.68 -1.06, 270.75 0 M270.75 0 C281.37 -0.06, 287.67 4.2, 289 18.25 M270.75 0 C281.1 -0.83, 289.5 7.42, 289 18.25 M289 18.25 C288.82 26.51, 287.92 31.46, 289 54.75 M289 18.25 C289.57 27, 288.74 36.17, 289 54.75 M289 54.75 C287.95 67.19, 282.88 72.08, 270.75 73 M289 54.75 C290.14 67.36, 285.2 74.49, 270.75 73 M270.75 73 C216.9 72.79, 162.45 71.61, 18.25 73 M270.75 73 C219.91 73.13, 170.43 73, 18.25 73 M18.25 73 C6.43 74.49, -1.38 65.55, 0 54.75 M18.25 73 C6.24 75.18, -1.96 66.42, 0 54.75 M0 54.75 C1.14 45.21, 1.37 36.9, 0 18.25 M0 54.75 C-0.62 44.85, -0.14 32.72, 0 18.25 M0 18.25 C-0.2 6.41, 5.79 1.21, 18.25 0 M0 18.25 C-0.51 7.51, 4.36 -0.47, 18.25 0"
              stroke="#1e1e1e" stroke-width="1" fill="none"></path>
    </g>
    <g transform="translate(471.11109924316406 34.037811279296875) rotate(0 42.59996032714844 12.5)">
        <text x="42.59996032714844" y="0" font-family="Virgil, Segoe UI Emoji" font-size="20px" fill="#1e1e1e"
              text-anchor="middle" style="white-space: pre;" direction="ltr" dominant-baseline="text-before-edge">
            Manifest
        </text>
    </g>
    <g stroke-linecap="round" transform="translate(737.151611328125 10) rotate(0 144.5 36.5)">
        <path d="M4.86 4.22 C4.86 4.22, 4.86 4.22, 4.86 4.22 M4.86 4.22 C4.86 4.22, 4.86 4.22, 4.86 4.22 M3.28 12.13 C4.19 8.74, 6.1 6.41, 11.81 2.32 M3.28 12.13 C5.26 9.75, 6.68 8.13, 11.81 2.32 M1.71 20.04 C6.13 11.99, 11.66 5.06, 18.77 0.41 M1.71 20.04 C4.63 15.62, 8.51 11.7, 18.77 0.41 M2.11 25.68 C9.46 15.97, 16.08 10.98, 23.76 0.77 M2.11 25.68 C9.71 16.67, 18.93 6.78, 23.76 0.77 M1.84 32.08 C10.92 24.59, 17.06 13.77, 29.4 0.38 M1.84 32.08 C8.02 25.36, 14.67 17.52, 29.4 0.38 M2.24 37.72 C10.13 30.09, 16.6 22.69, 34.39 0.74 M2.24 37.72 C13.64 22.81, 25.63 8.58, 34.39 0.74 M2.63 43.36 C15.11 28.45, 25.3 17.05, 40.03 0.35 M2.63 43.36 C14.42 29.29, 26.89 14.41, 40.03 0.35 M2.37 49.76 C12.76 35.53, 23.63 24.01, 45.02 0.71 M2.37 49.76 C14.61 36.31, 25.06 22.89, 45.02 0.71 M2.77 55.41 C22.02 35.28, 39.89 11.14, 50.66 0.31 M2.77 55.41 C15.19 41.46, 28.34 27.4, 50.66 0.31 M1.19 63.31 C18.4 40.06, 38.92 18.98, 55.65 0.67 M1.19 63.31 C14.49 48.23, 27.23 35.13, 55.65 0.67 M4.21 65.94 C17.97 48.25, 35.46 29.95, 61.29 0.28 M4.21 65.94 C22.66 42.92, 42.1 20.43, 61.29 0.28 M6.57 69.32 C30.8 42.23, 52.87 13.89, 66.28 0.64 M6.57 69.32 C29.7 42.61, 54.24 15.95, 66.28 0.64 M9.59 71.94 C28.8 54.1, 45.4 31.62, 71.92 0.24 M9.59 71.94 C24.42 56.65, 36.87 39.78, 71.92 0.24 M13.92 73.05 C40.25 45.64, 65.19 15.72, 76.91 0.6 M13.92 73.05 C29.84 55.17, 43.55 39.11, 76.91 0.6 M19.57 72.66 C33.75 55.27, 47.16 42.6, 82.55 0.21 M19.57 72.66 C37.31 51.65, 57.29 30.66, 82.55 0.21 M24.55 73.02 C45.48 51.76, 64.5 25.37, 87.54 0.57 M24.55 73.02 C48.24 46.09, 72.97 18.27, 87.54 0.57 M30.2 72.63 C50.42 48.28, 70.59 26, 93.18 0.17 M30.2 72.63 C49.45 51.61, 67.19 28.77, 93.18 0.17 M35.18 72.99 C54.54 50.45, 76.81 26.27, 98.17 0.53 M35.18 72.99 C61.06 45.01, 83.89 17.29, 98.17 0.53 M40.83 72.59 C61.56 48.22, 81.61 24.97, 103.15 0.89 M40.83 72.59 C60.78 49.24, 82.19 25.84, 103.15 0.89 M45.81 72.95 C63.95 51.64, 83.91 29.07, 108.8 0.5 M45.81 72.95 C68.22 47.67, 92.39 20.26, 108.8 0.5 M51.46 72.56 C65.7 56.61, 76.34 45.14, 113.78 0.86 M51.46 72.56 C64.17 58.2, 77.32 42.41, 113.78 0.86 M56.44 72.92 C75.36 53.31, 90.57 33.18, 119.43 0.46 M56.44 72.92 C77.45 48.21, 98.78 23.74, 119.43 0.46 M62.09 72.52 C87.77 43.53, 111.29 17.58, 124.41 0.82 M62.09 72.52 C80.81 49.12, 101.21 27.74, 124.41 0.82 M67.07 72.88 C82.91 53.49, 103.3 33.24, 130.06 0.43 M67.07 72.88 C88.24 48.84, 109.63 22.42, 130.06 0.43 M72.06 73.24 C92.45 46.8, 114.05 23.45, 135.04 0.79 M72.06 73.24 C93.5 47.48, 115.65 22.46, 135.04 0.79 M77.7 72.85 C93.3 52.57, 110.41 37.38, 140.69 0.4 M77.7 72.85 C94.96 52.92, 112.86 32.23, 140.69 0.4 M82.69 73.21 C95.43 57.25, 109.65 43.55, 145.67 0.76 M82.69 73.21 C106.24 46.67, 130.33 19.24, 145.67 0.76 M88.33 72.81 C108.9 49.99, 129.7 25.49, 151.32 0.36 M88.33 72.81 C104.05 53.9, 119.46 34.78, 151.32 0.36 M93.32 73.17 C116.76 46.01, 142.23 14.63, 156.3 0.72 M93.32 73.17 C104.53 57.91, 119.05 44.36, 156.3 0.72 M98.96 72.78 C121.44 46.01, 145.03 19.92, 161.95 0.33 M98.96 72.78 C116.61 51.12, 135.57 31.62, 161.95 0.33 M103.95 73.14 C127.04 46.55, 149.07 21.2, 166.93 0.69 M103.95 73.14 C126.89 45.04, 151.22 19.11, 166.93 0.69 M109.59 72.74 C122.86 56.96, 133.66 42.27, 172.58 0.29 M109.59 72.74 C129.72 49.03, 151.78 23.52, 172.58 0.29 M114.58 73.1 C136.89 46.69, 159.07 23.33, 177.56 0.65 M114.58 73.1 C139.37 43.74, 163.27 17.08, 177.56 0.65 M120.22 72.71 C135.75 56.99, 150.55 39.67, 183.21 0.26 M120.22 72.71 C140.26 49.44, 160.92 26.66, 183.21 0.26 M125.21 73.07 C139.16 57.53, 155.47 40.53, 188.19 0.62 M125.21 73.07 C143.6 52.58, 159.46 33.4, 188.19 0.62 M130.85 72.68 C154.87 46.61, 178.65 18.04, 193.18 0.98 M130.85 72.68 C149.86 50.49, 167.42 29.38, 193.18 0.98 M135.84 73.04 C156.67 49.54, 178.45 23.35, 198.82 0.58 M135.84 73.04 C161.3 44.5, 185.79 14.65, 198.82 0.58 M141.49 72.64 C162.25 49.28, 185.58 23.01, 203.81 0.94 M141.49 72.64 C157.63 53.29, 174.26 34.33, 203.81 0.94 M146.47 73 C172.43 42.98, 195.88 14.82, 209.45 0.55 M146.47 73 C165.02 52.28, 183.16 31.28, 209.45 0.55 M151.46 73.36 C163.3 56.9, 176.22 43.51, 214.44 0.91 M151.46 73.36 C173.92 47.82, 198.25 21.21, 214.44 0.91 M157.1 72.97 C176 51.68, 196.02 32.17, 220.08 0.51 M157.1 72.97 C169.71 55.33, 185.71 40.51, 220.08 0.51 M162.09 73.33 C183.84 44.95, 209.87 18.7, 225.07 0.87 M162.09 73.33 C181.04 51.71, 199.17 30.69, 225.07 0.87 M167.73 72.93 C186.35 53.8, 202.94 31.17, 230.71 0.48 M167.73 72.93 C180.38 57.94, 193.51 42.99, 230.71 0.48 M172.72 73.29 C198.53 48.4, 218.25 19.56, 235.7 0.84 M172.72 73.29 C189.43 53.71, 205.64 34.6, 235.7 0.84 M178.36 72.9 C198.69 47.08, 221.65 24.84, 241.34 0.45 M178.36 72.9 C201.21 46.01, 224.82 18.55, 241.34 0.45 M183.35 73.26 C207.32 46.31, 229.15 21.14, 246.33 0.81 M183.35 73.26 C199.73 54.05, 216.18 35.05, 246.33 0.81 M188.99 72.86 C202.4 54.54, 215.94 41.13, 251.97 0.41 M188.99 72.86 C205.24 55.29, 219.49 36.44, 251.97 0.41 M193.98 73.22 C209 55.84, 221.84 42.26, 256.96 0.77 M193.98 73.22 C207.45 56.12, 220.68 41.32, 256.96 0.77 M199.62 72.83 C213.49 54.07, 231.28 38.55, 262.6 0.38 M199.62 72.83 C214.5 55.68, 229.76 37.68, 262.6 0.38 M204.61 73.19 C228.32 48.21, 252.61 19.48, 267.59 0.74 M204.61 73.19 C227.67 45.96, 250.18 20.48, 267.59 0.74 M210.25 72.79 C228.44 54.09, 245.64 34.31, 273.23 0.34 M210.25 72.79 C234.52 47.42, 256.61 20.66, 273.23 0.34 M215.24 73.15 C226.19 59.27, 239.88 41.93, 276.91 2.21 M215.24 73.15 C236.98 47.91, 257.5 23.97, 276.91 2.21 M220.88 72.76 C240.2 51.58, 258.73 27.54, 281.9 2.57 M220.88 72.76 C241.53 50.36, 262.97 26.76, 281.9 2.57 M225.87 73.12 C244.52 53.99, 259.65 32.37, 284.26 5.95 M225.87 73.12 C242.3 54.39, 258.52 35.32, 284.26 5.95 M231.51 72.72 C249.94 49.15, 271.38 30.54, 286.62 9.33 M231.51 72.72 C243.64 57.84, 256.14 42.87, 286.62 9.33 M236.5 73.08 C253.32 55.8, 271.47 36.47, 289.64 11.95 M236.5 73.08 C252.78 55.08, 267.54 37.68, 289.64 11.95 M241.49 73.44 C255.91 56.53, 273.3 38.98, 289.38 18.35 M241.49 73.44 C254.51 60.36, 265.43 45.39, 289.38 18.35 M247.13 73.05 C260.05 57.52, 277.04 41.49, 289.12 24.75 M247.13 73.05 C263.03 55.11, 279.95 37.02, 289.12 24.75 M252.12 73.41 C261.73 59.9, 274.5 49.01, 288.86 31.15 M252.12 73.41 C264.7 58.96, 278.29 42.8, 288.86 31.15 M257.76 73.02 C264.4 64.8, 272.17 58.55, 289.25 36.79 M257.76 73.02 C267.86 60.6, 280 48.72, 289.25 36.79 M262.75 73.38 C271.99 64.15, 279.77 49.95, 288.99 43.19 M262.75 73.38 C269.57 64.83, 276.91 56.42, 288.99 43.19 M268.39 72.98 C273.6 65.97, 277.22 61.88, 288.73 49.59 M268.39 72.98 C274.38 66.4, 282.36 58.68, 288.73 49.59 M272.72 74.1 C276.58 67.04, 279.9 64.5, 289.12 55.23 M272.72 74.1 C277.17 69.29, 280.08 64.76, 289.12 55.23 M279.68 72.19 C280.67 68.84, 284.42 66.06, 290.17 60.12 M279.68 72.19 C283.56 68.31, 286.87 63.36, 290.17 60.12"
              stroke="#ffc9c9" stroke-width="0.5" fill="none"></path>
        <path d="M18.25 0 M18.25 0 C75.65 -0.13, 128.9 -0.8, 270.75 0 M18.25 0 C74.57 -0.39, 131.03 -0.34, 270.75 0 M270.75 0 C281.04 -1.09, 287.06 6.77, 289 18.25 M270.75 0 C285.04 -0.21, 286.94 5.87, 289 18.25 M289 18.25 C289.85 27.92, 288.56 35.97, 289 54.75 M289 18.25 C289.49 27.13, 287.96 38.13, 289 54.75 M289 54.75 C287.86 67.94, 283.98 72.93, 270.75 73 M289 54.75 C291.24 65.69, 281.65 71.02, 270.75 73 M270.75 73 C200.3 71.82, 131.07 72.82, 18.25 73 M270.75 73 C213.78 74.96, 156.97 74.12, 18.25 73 M18.25 73 C6.21 74.83, -0.26 66.67, 0 54.75 M18.25 73 C4.65 75.02, -1.2 68.14, 0 54.75 M0 54.75 C-0.21 45.28, 0.31 33.05, 0 18.25 M0 54.75 C-0.08 43.38, 0.1 30.86, 0 18.25 M0 18.25 C-1.17 5.71, 8.04 1.86, 18.25 0 M0 18.25 C0.39 6.27, 5.98 1.1, 18.25 0"
              stroke="#1e1e1e" stroke-width="1" fill="none"></path>
    </g>
    <g transform="translate(846.541633605957 34) rotate(0 35.10997772216797 12.5)">
        <text x="35.10997772216797" y="0" font-family="Virgil, Segoe UI Emoji" font-size="20px" fill="#1e1e1e"
              text-anchor="middle" style="white-space: pre;" direction="ltr" dominant-baseline="text-before-edge">Canvas
        </text>
    </g>
    <g stroke-linecap="round">
        <g transform="translate(305.880615234375 45.24346652899112) rotate(0 30.07321196968202 0.6511265922339646)">
            <path d="M-0.14 0.5 C9.96 0.69, 51.49 0.41, 61.82 0.24 M-1.68 -0.28 C8.12 0.15, 50.19 1.5, 60.61 1.58"
                  stroke="#1e1e1e" stroke-width="1" fill="none"></path>
        </g>
        <g transform="translate(305.880615234375 45.24346652899112) rotate(0 30.07321196968202 0.6511265922339646)">
            <path d="M33.03 10.37 C43.01 6.6, 53.12 3.92, 60.39 -0.08 M33.13 11.05 C39.65 8, 49.47 4.6, 61.1 0.65"
                  stroke="#1e1e1e" stroke-width="1" fill="none"></path>
        </g>
        <g transform="translate(305.880615234375 45.24346652899112) rotate(0 30.07321196968202 0.6511265922339646)">
            <path d="M33.49 -10.14 C43.13 -5.72, 53.06 -0.2, 60.39 -0.08 M33.58 -9.47 C40.15 -6.53, 49.84 -3.94, 61.1 0.65"
                  stroke="#1e1e1e" stroke-width="1" fill="none"></path>
        </g>
    </g>
    <mask></mask>
    <g stroke-linecap="round">
        <g transform="translate(666.3038330078126 46.447096818263276) rotate(0 35.2197071832278 1.2956571445865848)">
            <path d="M0.65 0.85 C12.57 1.16, 59.45 0.82, 70.91 1 M-0.47 0.25 C11.44 0.81, 59.04 2.4, 70.52 2.34"
                  stroke="#1e1e1e" stroke-width="1" fill="none"></path>
        </g>
        <g transform="translate(666.3038330078126 46.447096818263276) rotate(0 35.2197071832278 1.2956571445865848)">
            <path d="M43.56 13.87 C48.68 8.79, 57.31 9.09, 68.79 1.12 M42.92 11.3 C51.71 8.18, 61.91 5.91, 70.78 2.41"
                  stroke="#1e1e1e" stroke-width="1" fill="none"></path>
        </g>
        <g transform="translate(666.3038330078126 46.447096818263276) rotate(0 35.2197071832278 1.2956571445865848)">
            <path d="M43.93 -6.65 C48.8 -6.62, 57.34 -1.21, 68.79 1.12 M43.28 -9.21 C52.06 -5.23, 62.14 -0.39, 70.78 2.41"
                  stroke="#1e1e1e" stroke-width="1" fill="none"></path>
        </g>
    </g>
    <mask></mask>
    <g transform="translate(10 99.39387512207031) rotate(0 151.66986083984375 50)">
        <text x="0" y="0" font-family="Virgil, Segoe UI Emoji" font-size="20px" fill="#1e1e1e" text-anchor="start"
              style="white-space: pre;" direction="ltr" dominant-baseline="text-before-edge">- Organise similar
            Manifests
        </text>
        <text x="0" y="25" font-family="Virgil, Segoe UI Emoji" font-size="20px" fill="#1e1e1e" text-anchor="start"
              style="white-space: pre;" direction="ltr" dominant-baseline="text-before-edge">- Represent multiple
            volumes
        </text>
        <text x="0" y="50" font-family="Virgil, Segoe UI Emoji" font-size="20px" fill="#1e1e1e" text-anchor="start"
              style="white-space: pre;" direction="ltr" dominant-baseline="text-before-edge">- Tree structure of
            manifests
        </text>
        <text x="0" y="75" font-family="Virgil, Segoe UI Emoji" font-size="20px" fill="#1e1e1e" text-anchor="start"
              style="white-space: pre;" direction="ltr" dominant-baseline="text-before-edge"></text>
    </g>
    <g transform="translate(361.6099853515625 94.31764221191406) rotate(0 164.5198516845703 62.5)">
        <text x="0" y="0" font-family="Virgil, Segoe UI Emoji" font-size="20px" fill="#1e1e1e" text-anchor="start"
              style="white-space: pre;" direction="ltr" dominant-baseline="text-before-edge">- single object (e.g.
            painting, map)
        </text>
        <text x="0" y="25" font-family="Virgil, Segoe UI Emoji" font-size="20px" fill="#1e1e1e" text-anchor="start"
              style="white-space: pre;" direction="ltr" dominant-baseline="text-before-edge">- single works (e.g. book)
        </text>
        <text x="0" y="50" font-family="Virgil, Segoe UI Emoji" font-size="20px" fill="#1e1e1e" text-anchor="start"
              style="white-space: pre;" direction="ltr" dominant-baseline="text-before-edge">- rights information
        </text>
        <text x="0" y="75" font-family="Virgil, Segoe UI Emoji" font-size="20px" fill="#1e1e1e" text-anchor="start"
              style="white-space: pre;" direction="ltr" dominant-baseline="text-before-edge">- descriptive metadata
        </text>
        <text x="0" y="100" font-family="Virgil, Segoe UI Emoji" font-size="20px" fill="#1e1e1e" text-anchor="start"
              style="white-space: pre;" direction="ltr" dominant-baseline="text-before-edge">- structures or ranges
        </text>
    </g>
    <g transform="translate(742.4803466796875 98.35594177246094) rotate(0 138.46987915039062 62.5)">
        <text x="0" y="0" font-family="Virgil, Segoe UI Emoji" font-size="20px" fill="#1e1e1e" text-anchor="start"
              style="white-space: pre;" direction="ltr" dominant-baseline="text-before-edge">- Individual page or view
        </text>
        <text x="0" y="25" font-family="Virgil, Segoe UI Emoji" font-size="20px" fill="#1e1e1e" text-anchor="start"
              style="white-space: pre;" direction="ltr" dominant-baseline="text-before-edge">- Abstract space (x/y/time)
        </text>
        <text x="0" y="50" font-family="Virgil, Segoe UI Emoji" font-size="20px" fill="#1e1e1e" text-anchor="start"
              style="white-space: pre;" direction="ltr" dominant-baseline="text-before-edge">- typically an image or
            scan
        </text>
        <text x="0" y="75" font-family="Virgil, Segoe UI Emoji" font-size="20px" fill="#1e1e1e" text-anchor="start"
              style="white-space: pre;" direction="ltr" dominant-baseline="text-before-edge">- Audio or Video
        </text>
        <text x="0" y="100" font-family="Virgil, Segoe UI Emoji" font-size="20px" fill="#1e1e1e" text-anchor="start"
              style="white-space: pre;" direction="ltr" dominant-baseline="text-before-edge">- Descriptive annotations
        </text>
    </g>
</svg>